<mxfile host="app.diagrams.net" modified="2021-09-24T10:35:55.017Z" agent="5.0 (Windows NT 10.0; Win64; x64) AppleWebKit/537.36 (KHTML, like Gecko) Chrome/94.0.4606.54 Safari/537.36" etag="NTUKnoYPTIHFiQ1uCTuq" version="15.3.1" type="github">
  <diagram id="2GaBQythlEZLBs4x9ikx" name="Page-1">
    <mxGraphModel dx="2249" dy="1896" grid="1" gridSize="10" guides="1" tooltips="1" connect="1" arrows="1" fold="1" page="1" pageScale="1" pageWidth="827" pageHeight="1169" math="0" shadow="0">
      <root>
        <mxCell id="0" />
        <mxCell id="1" parent="0" />
        <mxCell id="RSFIPuV-9yh1eJlARGcJ-2" value="&lt;font size=&quot;3&quot;&gt;q1&lt;/font&gt;" style="ellipse;whiteSpace=wrap;html=1;aspect=fixed;" vertex="1" parent="1">
          <mxGeometry x="100" y="150" width="60" height="60" as="geometry" />
        </mxCell>
        <mxCell id="RSFIPuV-9yh1eJlARGcJ-18" value="" style="endArrow=classic;html=1;exitX=1;exitY=0.5;exitDx=0;exitDy=0;entryX=0;entryY=0.5;entryDx=0;entryDy=0;" edge="1" parent="1" source="RSFIPuV-9yh1eJlARGcJ-2" target="RSFIPuV-9yh1eJlARGcJ-34">
          <mxGeometry width="50" height="50" relative="1" as="geometry">
            <mxPoint x="170" y="190" as="sourcePoint" />
            <mxPoint x="220" y="180" as="targetPoint" />
          </mxGeometry>
        </mxCell>
        <mxCell id="RSFIPuV-9yh1eJlARGcJ-34" value="&lt;span style=&quot;font-size: 14px&quot;&gt;q2&lt;/span&gt;" style="ellipse;whiteSpace=wrap;html=1;aspect=fixed;" vertex="1" parent="1">
          <mxGeometry x="340" y="150" width="60" height="60" as="geometry" />
        </mxCell>
        <mxCell id="RSFIPuV-9yh1eJlARGcJ-35" value="&lt;font style=&quot;font-size: 14px&quot;&gt;&#39; &quot; &#39;&lt;/font&gt;" style="text;html=1;strokeColor=none;fillColor=none;align=center;verticalAlign=middle;whiteSpace=wrap;rounded=0;" vertex="1" parent="1">
          <mxGeometry x="220" y="150" width="40" height="20" as="geometry" />
        </mxCell>
        <mxCell id="RSFIPuV-9yh1eJlARGcJ-36" value="" style="endArrow=classic;html=1;" edge="1" parent="1">
          <mxGeometry width="50" height="50" relative="1" as="geometry">
            <mxPoint x="400" y="180" as="sourcePoint" />
            <mxPoint x="470" y="180" as="targetPoint" />
          </mxGeometry>
        </mxCell>
        <mxCell id="RSFIPuV-9yh1eJlARGcJ-37" value="&lt;font style=&quot;font-size: 14px&quot;&gt;q3&lt;/font&gt;" style="ellipse;whiteSpace=wrap;html=1;aspect=fixed;" vertex="1" parent="1">
          <mxGeometry x="470" y="150" width="60" height="60" as="geometry" />
        </mxCell>
        <mxCell id="RSFIPuV-9yh1eJlARGcJ-38" value="&lt;span style=&quot;font-size: 14px&quot;&gt;letter&lt;/span&gt;" style="text;html=1;strokeColor=none;fillColor=none;align=center;verticalAlign=middle;whiteSpace=wrap;rounded=0;" vertex="1" parent="1">
          <mxGeometry x="413.5" y="150" width="40" height="20" as="geometry" />
        </mxCell>
        <mxCell id="RSFIPuV-9yh1eJlARGcJ-40" value="" style="curved=1;endArrow=classic;html=1;entryX=0;entryY=0;entryDx=0;entryDy=0;" edge="1" parent="1" target="RSFIPuV-9yh1eJlARGcJ-37">
          <mxGeometry width="50" height="50" relative="1" as="geometry">
            <mxPoint x="520" y="160" as="sourcePoint" />
            <mxPoint x="570" y="110" as="targetPoint" />
            <Array as="points">
              <mxPoint x="540" y="140" />
              <mxPoint x="520" y="110" />
            </Array>
          </mxGeometry>
        </mxCell>
        <mxCell id="RSFIPuV-9yh1eJlARGcJ-41" value="&lt;span style=&quot;font-size: 14px&quot;&gt;letter&lt;/span&gt;" style="text;html=1;strokeColor=none;fillColor=none;align=center;verticalAlign=middle;whiteSpace=wrap;rounded=0;" vertex="1" parent="1">
          <mxGeometry x="510" y="100" width="40" height="20" as="geometry" />
        </mxCell>
        <mxCell id="RSFIPuV-9yh1eJlARGcJ-42" value="" style="endArrow=classic;html=1;exitX=1;exitY=0.5;exitDx=0;exitDy=0;" edge="1" parent="1" source="RSFIPuV-9yh1eJlARGcJ-37">
          <mxGeometry width="50" height="50" relative="1" as="geometry">
            <mxPoint x="540" y="179.5" as="sourcePoint" />
            <mxPoint x="600" y="179.5" as="targetPoint" />
          </mxGeometry>
        </mxCell>
        <mxCell id="RSFIPuV-9yh1eJlARGcJ-43" value="&lt;font style=&quot;font-size: 14px&quot;&gt;q4&lt;/font&gt;" style="ellipse;whiteSpace=wrap;html=1;aspect=fixed;" vertex="1" parent="1">
          <mxGeometry x="600" y="150" width="60" height="60" as="geometry" />
        </mxCell>
        <mxCell id="RSFIPuV-9yh1eJlARGcJ-44" value="&lt;font style=&quot;font-size: 14px&quot;&gt;&#39; &quot; &#39;&lt;/font&gt;" style="text;html=1;strokeColor=none;fillColor=none;align=center;verticalAlign=middle;whiteSpace=wrap;rounded=0;" vertex="1" parent="1">
          <mxGeometry x="550" y="160" width="40" height="20" as="geometry" />
        </mxCell>
        <mxCell id="RSFIPuV-9yh1eJlARGcJ-47" value="" style="endArrow=classic;html=1;entryX=0;entryY=0.5;entryDx=0;entryDy=0;" edge="1" parent="1" target="RSFIPuV-9yh1eJlARGcJ-49">
          <mxGeometry width="50" height="50" relative="1" as="geometry">
            <mxPoint y="210" as="sourcePoint" />
            <mxPoint x="180" y="210" as="targetPoint" />
            <Array as="points">
              <mxPoint y="280" />
            </Array>
          </mxGeometry>
        </mxCell>
        <mxCell id="RSFIPuV-9yh1eJlARGcJ-48" value="&lt;font style=&quot;font-size: 14px&quot;&gt;&#39; : &#39;&amp;nbsp;&lt;/font&gt;" style="text;html=1;strokeColor=none;fillColor=none;align=center;verticalAlign=middle;whiteSpace=wrap;rounded=0;" vertex="1" parent="1">
          <mxGeometry x="60" y="245" width="40" height="20" as="geometry" />
        </mxCell>
        <mxCell id="RSFIPuV-9yh1eJlARGcJ-49" value="&lt;font style=&quot;font-size: 14px&quot;&gt;q6&lt;/font&gt;" style="ellipse;whiteSpace=wrap;html=1;aspect=fixed;" vertex="1" parent="1">
          <mxGeometry x="180" y="250" width="60" height="60" as="geometry" />
        </mxCell>
        <mxCell id="RSFIPuV-9yh1eJlARGcJ-62" value="" style="endArrow=classic;html=1;" edge="1" parent="1">
          <mxGeometry width="50" height="50" relative="1" as="geometry">
            <mxPoint x="240" y="285" as="sourcePoint" />
            <mxPoint x="340" y="285" as="targetPoint" />
          </mxGeometry>
        </mxCell>
        <mxCell id="RSFIPuV-9yh1eJlARGcJ-63" value="&lt;span style=&quot;font-size: 14px&quot;&gt;q7&lt;/span&gt;" style="ellipse;whiteSpace=wrap;html=1;aspect=fixed;" vertex="1" parent="1">
          <mxGeometry x="340" y="260" width="60" height="60" as="geometry" />
        </mxCell>
        <mxCell id="RSFIPuV-9yh1eJlARGcJ-64" value="&lt;span style=&quot;font-size: 14px&quot;&gt;&#39; [ &#39;&lt;/span&gt;" style="text;html=1;strokeColor=none;fillColor=none;align=center;verticalAlign=middle;whiteSpace=wrap;rounded=0;" vertex="1" parent="1">
          <mxGeometry x="270" y="290" width="40" height="20" as="geometry" />
        </mxCell>
        <mxCell id="RSFIPuV-9yh1eJlARGcJ-79" value="" style="curved=1;endArrow=classic;html=1;exitX=0.967;exitY=0.257;exitDx=0;exitDy=0;exitPerimeter=0;" edge="1" parent="1" source="RSFIPuV-9yh1eJlARGcJ-49">
          <mxGeometry width="50" height="50" relative="1" as="geometry">
            <mxPoint x="220" y="260" as="sourcePoint" />
            <mxPoint x="200" y="250" as="targetPoint" />
            <Array as="points">
              <mxPoint x="260" y="240" />
              <mxPoint x="240" y="220" />
              <mxPoint x="230" y="230" />
            </Array>
          </mxGeometry>
        </mxCell>
        <mxCell id="RSFIPuV-9yh1eJlARGcJ-81" value="space" style="text;html=1;strokeColor=none;fillColor=none;align=center;verticalAlign=middle;whiteSpace=wrap;rounded=0;" vertex="1" parent="1">
          <mxGeometry x="180" y="210" width="40" height="20" as="geometry" />
        </mxCell>
        <mxCell id="RSFIPuV-9yh1eJlARGcJ-93" value="" style="endArrow=classic;html=1;" edge="1" parent="1">
          <mxGeometry width="50" height="50" relative="1" as="geometry">
            <mxPoint x="400" y="290" as="sourcePoint" />
            <mxPoint x="470" y="290" as="targetPoint" />
          </mxGeometry>
        </mxCell>
        <mxCell id="RSFIPuV-9yh1eJlARGcJ-94" value="&lt;span style=&quot;font-size: 14px&quot;&gt;q7&lt;/span&gt;" style="ellipse;whiteSpace=wrap;html=1;aspect=fixed;" vertex="1" parent="1">
          <mxGeometry x="470" y="260" width="60" height="60" as="geometry" />
        </mxCell>
        <mxCell id="RSFIPuV-9yh1eJlARGcJ-95" value="&lt;span style=&quot;font-size: 14px&quot;&gt;symbol&lt;/span&gt;" style="text;html=1;strokeColor=none;fillColor=none;align=center;verticalAlign=middle;whiteSpace=wrap;rounded=0;" vertex="1" parent="1">
          <mxGeometry x="413.5" y="260" width="40" height="20" as="geometry" />
        </mxCell>
        <mxCell id="RSFIPuV-9yh1eJlARGcJ-97" value="" style="curved=1;endArrow=classic;html=1;entryX=0.213;entryY=0.003;entryDx=0;entryDy=0;entryPerimeter=0;" edge="1" parent="1">
          <mxGeometry width="50" height="50" relative="1" as="geometry">
            <mxPoint x="530" y="270" as="sourcePoint" />
            <mxPoint x="492.78" y="260.17999999999995" as="targetPoint" />
            <Array as="points">
              <mxPoint x="550" y="250" />
              <mxPoint x="530" y="220" />
            </Array>
          </mxGeometry>
        </mxCell>
        <mxCell id="RSFIPuV-9yh1eJlARGcJ-98" value="&lt;span style=&quot;font-size: 14px&quot;&gt;symbol&lt;/span&gt;" style="text;html=1;strokeColor=none;fillColor=none;align=center;verticalAlign=middle;whiteSpace=wrap;rounded=0;" vertex="1" parent="1">
          <mxGeometry x="510" y="210" width="40" height="20" as="geometry" />
        </mxCell>
        <mxCell id="RSFIPuV-9yh1eJlARGcJ-103" value="" style="endArrow=classic;html=1;exitX=1;exitY=0.5;exitDx=0;exitDy=0;" edge="1" parent="1">
          <mxGeometry width="50" height="50" relative="1" as="geometry">
            <mxPoint x="530" y="290.5" as="sourcePoint" />
            <mxPoint x="600" y="290" as="targetPoint" />
          </mxGeometry>
        </mxCell>
        <mxCell id="RSFIPuV-9yh1eJlARGcJ-104" value="&lt;span style=&quot;font-size: 14px&quot;&gt;q8&lt;/span&gt;" style="ellipse;whiteSpace=wrap;html=1;aspect=fixed;" vertex="1" parent="1">
          <mxGeometry x="600" y="260" width="60" height="60" as="geometry" />
        </mxCell>
        <mxCell id="RSFIPuV-9yh1eJlARGcJ-106" value="&lt;span style=&quot;font-size: 14px&quot;&gt;&#39; ] &#39;&amp;nbsp;&lt;/span&gt;" style="text;html=1;strokeColor=none;fillColor=none;align=center;verticalAlign=middle;whiteSpace=wrap;rounded=0;" vertex="1" parent="1">
          <mxGeometry x="540" y="290" width="40" height="20" as="geometry" />
        </mxCell>
        <mxCell id="RSFIPuV-9yh1eJlARGcJ-107" value="" style="endArrow=classic;html=1;exitX=0.5;exitY=0;exitDx=0;exitDy=0;" edge="1" parent="1" source="RSFIPuV-9yh1eJlARGcJ-43">
          <mxGeometry width="50" height="50" relative="1" as="geometry">
            <mxPoint x="629.41" y="140" as="sourcePoint" />
            <mxPoint x="629.41" y="80" as="targetPoint" />
          </mxGeometry>
        </mxCell>
        <mxCell id="RSFIPuV-9yh1eJlARGcJ-108" value="&lt;span style=&quot;font-size: 14px&quot;&gt;q5&lt;/span&gt;" style="ellipse;whiteSpace=wrap;html=1;aspect=fixed;" vertex="1" parent="1">
          <mxGeometry x="600" y="20" width="60" height="60" as="geometry" />
        </mxCell>
        <mxCell id="RSFIPuV-9yh1eJlARGcJ-110" value="&lt;font style=&quot;font-size: 14px&quot;&gt;coma&lt;/font&gt;" style="text;html=1;strokeColor=none;fillColor=none;align=center;verticalAlign=middle;whiteSpace=wrap;rounded=0;" vertex="1" parent="1">
          <mxGeometry x="630" y="110" width="40" height="20" as="geometry" />
        </mxCell>
        <mxCell id="RSFIPuV-9yh1eJlARGcJ-111" value="" style="endArrow=classic;html=1;exitX=0;exitY=0.5;exitDx=0;exitDy=0;entryX=0.5;entryY=0;entryDx=0;entryDy=0;" edge="1" parent="1" source="RSFIPuV-9yh1eJlARGcJ-108" target="RSFIPuV-9yh1eJlARGcJ-34">
          <mxGeometry width="50" height="50" relative="1" as="geometry">
            <mxPoint x="490" y="60" as="sourcePoint" />
            <mxPoint x="190" y="50" as="targetPoint" />
            <Array as="points">
              <mxPoint x="370" y="50" />
            </Array>
          </mxGeometry>
        </mxCell>
        <mxCell id="RSFIPuV-9yh1eJlARGcJ-112" value="&lt;font style=&quot;font-size: 14px&quot;&gt;&#39; &quot; &#39;&lt;/font&gt;" style="text;html=1;strokeColor=none;fillColor=none;align=center;verticalAlign=middle;whiteSpace=wrap;rounded=0;" vertex="1" parent="1">
          <mxGeometry x="413.5" y="30" width="40" height="20" as="geometry" />
        </mxCell>
        <mxCell id="RSFIPuV-9yh1eJlARGcJ-113" value="" style="curved=1;endArrow=classic;html=1;entryX=0;entryY=0;entryDx=0;entryDy=0;" edge="1" parent="1" target="RSFIPuV-9yh1eJlARGcJ-108">
          <mxGeometry width="50" height="50" relative="1" as="geometry">
            <mxPoint x="660" y="50" as="sourcePoint" />
            <mxPoint x="710" as="targetPoint" />
            <Array as="points">
              <mxPoint x="740" y="50" />
              <mxPoint x="590" y="-50" />
            </Array>
          </mxGeometry>
        </mxCell>
        <mxCell id="RSFIPuV-9yh1eJlARGcJ-114" value="&lt;span style=&quot;font-size: 14px&quot;&gt;space&lt;/span&gt;" style="text;html=1;strokeColor=none;fillColor=none;align=center;verticalAlign=middle;whiteSpace=wrap;rounded=0;" vertex="1" parent="1">
          <mxGeometry x="670" y="-20" width="40" height="20" as="geometry" />
        </mxCell>
        <mxCell id="RSFIPuV-9yh1eJlARGcJ-116" value="" style="endArrow=classic;html=1;entryX=0.048;entryY=0.321;entryDx=0;entryDy=0;entryPerimeter=0;exitX=1;exitY=1;exitDx=0;exitDy=0;" edge="1" parent="1" source="RSFIPuV-9yh1eJlARGcJ-43">
          <mxGeometry width="50" height="50" relative="1" as="geometry">
            <mxPoint x="655" y="240" as="sourcePoint" />
            <mxPoint x="712.8800000000001" y="229.26000000000022" as="targetPoint" />
          </mxGeometry>
        </mxCell>
        <mxCell id="RSFIPuV-9yh1eJlARGcJ-119" value="&lt;span style=&quot;font-size: 14px&quot;&gt;&#39; } &#39;&lt;/span&gt;" style="text;html=1;strokeColor=none;fillColor=none;align=center;verticalAlign=middle;whiteSpace=wrap;rounded=0;" vertex="1" parent="1">
          <mxGeometry x="670" y="185" width="40" height="20" as="geometry" />
        </mxCell>
        <mxCell id="RSFIPuV-9yh1eJlARGcJ-122" value="" style="ellipse;whiteSpace=wrap;html=1;aspect=fixed;" vertex="1" parent="1">
          <mxGeometry x="710" y="200" width="70" height="70" as="geometry" />
        </mxCell>
        <mxCell id="RSFIPuV-9yh1eJlARGcJ-124" value="&lt;font style=&quot;font-size: 14px&quot;&gt;q&lt;/font&gt;" style="ellipse;whiteSpace=wrap;html=1;aspect=fixed;" vertex="1" parent="1">
          <mxGeometry x="715" y="205" width="60" height="60" as="geometry" />
        </mxCell>
        <mxCell id="RSFIPuV-9yh1eJlARGcJ-125" value="" style="endArrow=classic;html=1;entryX=0;entryY=1;entryDx=0;entryDy=0;" edge="1" parent="1" target="RSFIPuV-9yh1eJlARGcJ-124">
          <mxGeometry width="50" height="50" relative="1" as="geometry">
            <mxPoint x="660" y="295" as="sourcePoint" />
            <mxPoint x="710" y="245" as="targetPoint" />
          </mxGeometry>
        </mxCell>
        <mxCell id="RSFIPuV-9yh1eJlARGcJ-126" value="&lt;span style=&quot;font-size: 14px&quot;&gt;&#39; } &#39;&lt;/span&gt;" style="text;html=1;strokeColor=none;fillColor=none;align=center;verticalAlign=middle;whiteSpace=wrap;rounded=0;" vertex="1" parent="1">
          <mxGeometry x="675" y="290" width="40" height="20" as="geometry" />
        </mxCell>
        <mxCell id="RSFIPuV-9yh1eJlARGcJ-128" value="&lt;font style=&quot;font-size: 14px&quot;&gt;q0&lt;/font&gt;" style="ellipse;whiteSpace=wrap;html=1;aspect=fixed;" vertex="1" parent="1">
          <mxGeometry x="-30" y="150" width="60" height="60" as="geometry" />
        </mxCell>
        <mxCell id="RSFIPuV-9yh1eJlARGcJ-129" value="" style="endArrow=classic;html=1;entryX=0;entryY=0.5;entryDx=0;entryDy=0;" edge="1" parent="1" target="RSFIPuV-9yh1eJlARGcJ-2">
          <mxGeometry width="50" height="50" relative="1" as="geometry">
            <mxPoint x="30" y="180" as="sourcePoint" />
            <mxPoint x="80" y="130" as="targetPoint" />
          </mxGeometry>
        </mxCell>
        <mxCell id="RSFIPuV-9yh1eJlARGcJ-134" value="&lt;span style=&quot;font-size: 14px&quot;&gt;&#39; { &#39;&lt;/span&gt;" style="text;html=1;strokeColor=none;fillColor=none;align=center;verticalAlign=middle;whiteSpace=wrap;rounded=0;" vertex="1" parent="1">
          <mxGeometry x="50" y="150" width="40" height="20" as="geometry" />
        </mxCell>
        <mxCell id="RSFIPuV-9yh1eJlARGcJ-136" value="" style="endArrow=classic;html=1;entryX=0.5;entryY=1;entryDx=0;entryDy=0;" edge="1" parent="1" target="RSFIPuV-9yh1eJlARGcJ-63">
          <mxGeometry width="50" height="50" relative="1" as="geometry">
            <mxPoint x="630" y="320" as="sourcePoint" />
            <mxPoint x="250" y="380" as="targetPoint" />
            <Array as="points">
              <mxPoint x="440" y="410" />
            </Array>
          </mxGeometry>
        </mxCell>
        <mxCell id="RSFIPuV-9yh1eJlARGcJ-137" value="&lt;span style=&quot;font-size: 14px&quot;&gt;&#39; [ &#39;&lt;/span&gt;" style="text;html=1;strokeColor=none;fillColor=none;align=center;verticalAlign=middle;whiteSpace=wrap;rounded=0;" vertex="1" parent="1">
          <mxGeometry x="414" y="410" width="40" height="20" as="geometry" />
        </mxCell>
        <mxCell id="RSFIPuV-9yh1eJlARGcJ-140" value="" style="curved=1;endArrow=classic;html=1;entryX=0.996;entryY=0.674;entryDx=0;entryDy=0;entryPerimeter=0;" edge="1" parent="1" target="RSFIPuV-9yh1eJlARGcJ-104">
          <mxGeometry width="50" height="50" relative="1" as="geometry">
            <mxPoint x="630" y="320" as="sourcePoint" />
            <mxPoint x="700" y="340" as="targetPoint" />
            <Array as="points">
              <mxPoint x="700" y="390" />
              <mxPoint x="680" y="330" />
            </Array>
          </mxGeometry>
        </mxCell>
        <mxCell id="RSFIPuV-9yh1eJlARGcJ-141" value="space" style="text;html=1;strokeColor=none;fillColor=none;align=center;verticalAlign=middle;whiteSpace=wrap;rounded=0;" vertex="1" parent="1">
          <mxGeometry x="660" y="370" width="40" height="20" as="geometry" />
        </mxCell>
        <mxCell id="RSFIPuV-9yh1eJlARGcJ-146" value="" style="endArrow=classic;html=1;exitX=1.012;exitY=0.358;exitDx=0;exitDy=0;exitPerimeter=0;" edge="1" parent="1" source="RSFIPuV-9yh1eJlARGcJ-43" target="RSFIPuV-9yh1eJlARGcJ-149">
          <mxGeometry width="50" height="50" relative="1" as="geometry">
            <mxPoint x="660" y="160" as="sourcePoint" />
            <mxPoint x="400" y="-80" as="targetPoint" />
            <Array as="points">
              <mxPoint x="780" y="-130" />
            </Array>
          </mxGeometry>
        </mxCell>
        <mxCell id="RSFIPuV-9yh1eJlARGcJ-148" value="&lt;font style=&quot;font-size: 18px&quot;&gt;&#39; : &#39;&amp;nbsp;&lt;/font&gt;" style="text;html=1;strokeColor=none;fillColor=none;align=center;verticalAlign=middle;whiteSpace=wrap;rounded=0;" vertex="1" parent="1">
          <mxGeometry x="420" y="-120" width="40" height="20" as="geometry" />
        </mxCell>
        <mxCell id="RSFIPuV-9yh1eJlARGcJ-149" value="q6" style="ellipse;whiteSpace=wrap;html=1;aspect=fixed;" vertex="1" parent="1">
          <mxGeometry x="-140" y="-30" width="70" height="70" as="geometry" />
        </mxCell>
        <mxCell id="RSFIPuV-9yh1eJlARGcJ-150" value="" style="endArrow=classic;html=1;" edge="1" parent="1" target="RSFIPuV-9yh1eJlARGcJ-63">
          <mxGeometry width="50" height="50" relative="1" as="geometry">
            <mxPoint x="-100" y="40" as="sourcePoint" />
            <mxPoint x="310" y="380" as="targetPoint" />
            <Array as="points">
              <mxPoint x="-100" y="380" />
              <mxPoint x="180" y="380" />
            </Array>
          </mxGeometry>
        </mxCell>
        <mxCell id="RSFIPuV-9yh1eJlARGcJ-151" value="&lt;span style=&quot;font-size: 14px&quot;&gt;&#39; [ &#39;&lt;/span&gt;" style="text;html=1;strokeColor=none;fillColor=none;align=center;verticalAlign=middle;whiteSpace=wrap;rounded=0;" vertex="1" parent="1">
          <mxGeometry x="20" y="400" width="40" height="20" as="geometry" />
        </mxCell>
        <mxCell id="RSFIPuV-9yh1eJlARGcJ-152" value="" style="endArrow=classic;html=1;" edge="1" parent="1" target="RSFIPuV-9yh1eJlARGcJ-34">
          <mxGeometry width="50" height="50" relative="1" as="geometry">
            <mxPoint x="-70" y="20" as="sourcePoint" />
            <mxPoint x="180" y="10" as="targetPoint" />
          </mxGeometry>
        </mxCell>
        <mxCell id="RSFIPuV-9yh1eJlARGcJ-154" value="&lt;font style=&quot;font-size: 14px&quot;&gt;&#39; &quot; &#39;&lt;/font&gt;" style="text;html=1;strokeColor=none;fillColor=none;align=center;verticalAlign=middle;whiteSpace=wrap;rounded=0;" vertex="1" parent="1">
          <mxGeometry x="110" y="30" width="40" height="20" as="geometry" />
        </mxCell>
      </root>
    </mxGraphModel>
  </diagram>
</mxfile>
